<svg width="50" height="50" viewBox="0 0 50 50" fill="none" xmlns="http://www.w3.org/2000/svg">
<path d="M24.8571 0C38.5845 0 49.7143 11.1298 49.7143 24.8571C49.7143 38.5845 38.5845 49.7143 24.8571 49.7143C11.1298 49.7143 0 38.5845 0 24.8571C0 11.1298 11.1298 0 24.8571 0ZM24.8571 3.10714C12.8449 3.10714 3.10714 12.8449 3.10714 24.8571C3.10714 36.8694 12.8449 46.6071 24.8571 46.6071C36.8694 46.6071 46.6071 36.8694 46.6071 24.8571C46.6071 12.8449 36.8694 3.10714 24.8571 3.10714ZM24.8571 12.4286C25.2692 12.4286 25.6643 12.5923 25.9557 12.8836C26.247 13.175 26.4107 13.5701 26.4107 13.9821V23.3036H35.7321C36.1442 23.3036 36.5393 23.4673 36.8307 23.7586C37.122 24.05 37.2857 24.4451 37.2857 24.8571C37.2857 25.2692 37.122 25.6643 36.8307 25.9557C36.5393 26.247 36.1442 26.4107 35.7321 26.4107H26.4107V35.7321C26.4107 36.1442 26.247 36.5393 25.9557 36.8307C25.6643 37.122 25.2692 37.2857 24.8571 37.2857C24.4451 37.2857 24.05 37.122 23.7586 36.8307C23.4673 36.5393 23.3036 36.1442 23.3036 35.7321V26.4107H13.9821C13.5701 26.4107 13.175 26.247 12.8836 25.9557C12.5923 25.6643 12.4286 25.2692 12.4286 24.8571C12.4286 24.4451 12.5923 24.05 12.8836 23.7586C13.175 23.4673 13.5701 23.3036 13.9821 23.3036H23.3036V13.9821C23.3036 13.5701 23.4673 13.175 23.7586 12.8836C24.05 12.5923 24.4451 12.4286 24.8571 12.4286Z" fill="#217B0B"/>
</svg>
