<svg width="44" height="44" viewBox="0 0 44 44" fill="none" xmlns="http://www.w3.org/2000/svg">
<path d="M1.03771 1.0375C1.328 0.746479 1.67285 0.515586 2.0525 0.358045C2.43216 0.200505 2.83917 0.119415 3.25021 0.119415C3.66126 0.119415 4.06827 0.200505 4.44792 0.358045C4.82758 0.515586 5.17243 0.746479 5.46271 1.0375L22.0002 17.5813L38.5377 1.0375C38.8283 0.74695 39.1732 0.516473 39.5528 0.359229C39.9324 0.201984 40.3393 0.121051 40.7502 0.121051C41.1611 0.121051 41.568 0.201984 41.9476 0.359229C42.3272 0.516473 42.6722 0.74695 42.9627 1.0375C43.2533 1.32805 43.4837 1.67298 43.641 2.0526C43.7982 2.43222 43.8792 2.8391 43.8792 3.25C43.8792 3.6609 43.7982 4.06778 43.641 4.4474C43.4837 4.82702 43.2533 5.17195 42.9627 5.4625L26.419 22L42.9627 38.5375C43.2533 38.828 43.4837 39.173 43.641 39.5526C43.7982 39.9322 43.8792 40.3391 43.8792 40.75C43.8792 41.1609 43.7982 41.5678 43.641 41.9474C43.4837 42.327 43.2533 42.672 42.9627 42.9625C42.6722 43.2531 42.3272 43.4835 41.9476 43.6408C41.568 43.798 41.1611 43.8789 40.7502 43.8789C40.3393 43.8789 39.9324 43.798 39.5528 43.6408C39.1732 43.4835 38.8283 43.2531 38.5377 42.9625L22.0002 26.4187L5.46271 42.9625C5.17216 43.2531 4.82723 43.4835 4.44761 43.6408C4.06799 43.798 3.66111 43.8789 3.25021 43.8789C2.83931 43.8789 2.43244 43.798 2.05282 43.6408C1.67319 43.4835 1.32826 43.2531 1.03771 42.9625C0.747164 42.672 0.516687 42.327 0.359442 41.9474C0.202198 41.5678 0.121265 41.1609 0.121265 40.75C0.121265 40.3391 0.202198 39.9322 0.359442 39.5526C0.516687 39.173 0.747164 38.828 1.03771 38.5375L17.5815 22L1.03771 5.4625C0.746693 5.17222 0.515799 4.82737 0.358259 4.44771C0.200719 4.06805 0.119629 3.66105 0.119629 3.25C0.119629 2.83895 0.200719 2.43195 0.358259 2.05229C0.515799 1.67263 0.746693 1.32779 1.03771 1.0375Z" fill="#222222"/>
</svg>
