<svg width="18" height="18" viewBox="0 0 18 18" fill="none" xmlns="http://www.w3.org/2000/svg">
<path d="M10.35 3.6C10.35 3.24196 10.2078 2.89858 9.95459 2.6454C9.70142 2.39223 9.35804 2.25 9 2.25C8.64196 2.25 8.29858 2.39223 8.04541 2.6454C7.79223 2.89858 7.65 3.24196 7.65 3.6H10.35ZM6.75 3.6C6.75 3.00326 6.98705 2.43097 7.40901 2.00901C7.83097 1.58705 8.40326 1.35 9 1.35C9.59674 1.35 10.169 1.58705 10.591 2.00901C11.0129 2.43097 11.25 3.00326 11.25 3.6H15.3C15.4193 3.6 15.5338 3.64741 15.6182 3.7318C15.7026 3.81619 15.75 3.93065 15.75 4.05C15.75 4.16935 15.7026 4.2838 15.6182 4.3682C15.5338 4.45259 15.4193 4.5 15.3 4.5H14.8014L14.3658 8.2764C14.0752 8.19659 13.7778 8.14357 13.4775 8.118L13.8942 4.5H4.1049L5.2587 14.5035C5.2841 14.7229 5.38929 14.9253 5.55426 15.0722C5.71922 15.2191 5.93243 15.3001 6.1533 15.3H8.64C8.8047 15.6222 9.0036 15.9237 9.2313 16.2H6.1533C5.71171 16.2001 5.28551 16.0378 4.95578 15.7441C4.62604 15.4503 4.41578 15.0457 4.365 14.607L3.1977 4.5H2.7C2.59468 4.50003 2.49268 4.46312 2.41177 4.3957C2.33086 4.32827 2.27616 4.2346 2.2572 4.131L2.25 4.05C2.25 3.93065 2.29741 3.81619 2.3818 3.7318C2.46619 3.64741 2.58065 3.6 2.7 3.6H6.75ZM17.1 13.05C17.1 14.1241 16.6733 15.1543 15.9138 15.9138C15.1543 16.6733 14.1241 17.1 13.05 17.1C11.9759 17.1 10.9457 16.6733 10.1862 15.9138C9.4267 15.1543 9 14.1241 9 13.05C9 11.9759 9.4267 10.9457 10.1862 10.1862C10.9457 9.42669 11.9759 9 13.05 9C14.1241 9 15.1543 9.42669 15.9138 10.1862C16.6733 10.9457 17.1 11.9759 17.1 13.05ZM14.7186 12.0186C14.8031 11.9341 14.8506 11.8195 14.8506 11.7C14.8506 11.5805 14.8031 11.4659 14.7186 11.3814C14.6341 11.2969 14.5195 11.2494 14.4 11.2494C14.2805 11.2494 14.1659 11.2969 14.0814 11.3814L13.05 12.4137L12.0186 11.3814C11.9341 11.2969 11.8195 11.2494 11.7 11.2494C11.5805 11.2494 11.4659 11.2969 11.3814 11.3814C11.2969 11.4659 11.2494 11.5805 11.2494 11.7C11.2494 11.8195 11.2969 11.9341 11.3814 12.0186L12.4137 13.05L11.3814 14.0814C11.3396 14.1232 11.3064 14.1729 11.2837 14.2276C11.2611 14.2822 11.2494 14.3408 11.2494 14.4C11.2494 14.4592 11.2611 14.5178 11.2837 14.5724C11.3064 14.6271 11.3396 14.6768 11.3814 14.7186C11.4232 14.7604 11.4729 14.7936 11.5276 14.8163C11.5822 14.8389 11.6408 14.8506 11.7 14.8506C11.7592 14.8506 11.8178 14.8389 11.8724 14.8163C11.9271 14.7936 11.9768 14.7604 12.0186 14.7186L13.05 13.6863L14.0814 14.7186C14.1232 14.7604 14.1729 14.7936 14.2276 14.8163C14.2822 14.8389 14.3408 14.8506 14.4 14.8506C14.4592 14.8506 14.5178 14.8389 14.5724 14.8163C14.6271 14.7936 14.6768 14.7604 14.7186 14.7186C14.7604 14.6768 14.7936 14.6271 14.8163 14.5724C14.8389 14.5178 14.8506 14.4592 14.8506 14.4C14.8506 14.3408 14.8389 14.2822 14.8163 14.2276C14.7936 14.1729 14.7604 14.1232 14.7186 14.0814L13.6863 13.05L14.7186 12.0186Z" fill="#FE0404"/>
</svg>
