<svg width="30" height="37" viewBox="0 0 30 37" fill="none" xmlns="http://www.w3.org/2000/svg">
<path fill-rule="evenodd" clip-rule="evenodd" d="M4.92006 4.25453C3.62133 5.53063 2.58891 7.04996 1.88224 8.72503C1.17557 10.4001 0.808619 12.1978 0.802507 14.0147C0.796395 15.8316 1.15125 17.6317 1.84663 19.3115C2.54201 20.9912 3.56418 22.5174 4.8543 23.8022C6.14441 25.0869 7.67698 26.1048 9.36377 26.7973C11.0506 27.4898 12.8582 27.8431 14.6827 27.8371C16.5072 27.831 18.3125 27.4655 19.9946 26.7618C21.6766 26.0581 23.2023 25.03 24.4838 23.7367C27.0494 21.1473 28.4825 17.6524 28.4702 14.0147C28.458 10.377 27.0015 6.89183 24.4184 4.31958C21.8354 1.74734 18.3356 0.296871 14.6827 0.284684C11.0298 0.272498 7.52032 1.69958 4.92006 4.25453ZM20.9272 20.1949C19.2761 21.8391 17.0368 22.7628 14.7019 22.7628C12.367 22.7628 10.1277 21.8391 8.47664 20.1949C6.82559 18.5508 5.89805 16.3208 5.89805 13.9956C5.89805 11.6704 6.82559 9.44044 8.47664 7.79628C10.1277 6.15212 12.367 5.22844 14.7019 5.22844C17.0368 5.22844 19.2761 6.15212 20.9272 7.79628C22.5782 9.44044 23.5058 11.6704 23.5058 13.9956C23.5058 16.3208 22.5782 18.5508 20.9272 20.1949Z" fill="#DEA8A8"/>
<path d="M13.9811 26.3943C13.6307 26.0453 13.3527 25.631 13.163 25.175C12.9733 24.719 12.8757 24.2303 12.8757 23.7367C12.8757 23.2431 12.9733 22.7544 13.163 22.2984C13.3527 21.8424 13.6307 21.4281 13.9811 21.0791C14.3316 20.7301 14.7476 20.4533 15.2055 20.2644C15.6634 20.0755 16.1542 19.9783 16.6498 19.9783C17.1454 19.9783 17.6362 20.0755 18.0941 20.2644C18.552 20.4533 18.968 20.7301 19.3185 21.0791L28.21 29.936C28.5703 30.2826 28.8577 30.6972 29.0555 31.1556C29.2532 31.614 29.3573 32.107 29.3616 32.6059C29.366 33.1047 29.2705 33.5995 29.0808 34.0612C28.8911 34.523 28.611 34.9424 28.2567 35.2952C27.9025 35.648 27.4812 35.927 27.0175 36.1159C26.5539 36.3048 26.0571 36.3999 25.5561 36.3955C25.0551 36.3912 24.5601 36.2875 24.0997 36.0906C23.6394 35.8937 23.2231 35.6075 22.8751 35.2487L13.9811 26.3943Z" fill="#DEA8A8"/>
</svg>
